<?xml version="1.0" standalone="no"?>
<!DOCTYPE svg PUBLIC "-//W3C//DTD SVG 20010904//EN"
 "http://www.w3.org/TR/2001/REC-SVG-20010904/DTD/svg10.dtd">
<svg version="1.0" xmlns="http://www.w3.org/2000/svg"
 width="512.000000pt" height="512.000000pt" viewBox="0 0 512.000000 512.000000"
 preserveAspectRatio="xMidYMid meet">

<g transform="translate(0.000000,512.000000) scale(0.100000,-0.100000)"
fill="#000000" stroke="none">
<path d="M1060 4615 c-20 -9 -111 -93 -218 -202 -183 -188 -232 -254 -232
-314 0 -68 47 -121 740 -830 377 -386 685 -705 685 -709 0 -4 -308 -323 -685
-709 -402 -412 -696 -721 -712 -749 -34 -58 -36 -105 -5 -160 26 -50 336 -374
395 -416 56 -39 116 -45 170 -17 54 27 53 27 757 749 329 336 601 612 605 612
4 0 283 -282 620 -627 337 -346 633 -647 659 -671 85 -79 144 -97 219 -67 49
20 403 381 432 439 27 57 25 102 -8 158 -16 28 -305 333 -712 749 -377 386
-685 705 -685 709 0 4 308 323 685 708 693 710 740 763 740 831 0 62 -46 125
-224 308 -195 201 -235 229 -312 220 -30 -3 -58 -15 -87 -38 -24 -19 -330
-328 -681 -686 -351 -359 -641 -653 -646 -653 -4 0 -297 296 -651 658 -353
361 -660 670 -681 686 -48 35 -116 44 -168 21z"/>
</g>
</svg>
