<?xml version="1.0" standalone="no"?>
<!DOCTYPE svg PUBLIC "-//W3C//DTD SVG 20010904//EN"
 "http://www.w3.org/TR/2001/REC-SVG-20010904/DTD/svg10.dtd">
<svg version="1.0" xmlns="http://www.w3.org/2000/svg"
 width="1518.000000pt" height="1518.000000pt" viewBox="0 0 1518.000000 1518.000000"
 preserveAspectRatio="xMidYMid meet">

<g transform="translate(0.000000,1518.000000) scale(0.100000,-0.100000)"
fill="#000000" stroke="none">
<path d="M7285 15164 c-22 -2 -92 -9 -155 -14 -1305 -118 -2532 -806 -3334
-1870 -537 -712 -847 -1519 -937 -2435 -17 -171 -17 -591 0 -720 129 -1001
657 -2439 1646 -4485 742 -1536 1848 -3572 2912 -5363 l166 -278 20 33 c280
459 875 1490 1289 2233 2003 3597 3189 6296 3397 7730 62 426 38 920 -69 1425
-139 662 -436 1314 -841 1850 -320 424 -707 794 -1129 1079 -661 447 -1348
700 -2160 797 -128 15 -703 28 -805 18z m595 -1909 c850 -90 1598 -546 2074
-1263 230 -347 372 -716 443 -1157 26 -158 26 -652 0 -810 -86 -532 -282 -978
-610 -1385 -166 -206 -449 -460 -672 -602 -340 -217 -713 -357 -1120 -420
-189 -29 -606 -32 -790 -5 -637 94 -1188 369 -1630 812 -1013 1016 -1114 2610
-236 3745 358 464 868 814 1431 983 175 53 368 89 590 110 98 10 401 5 520 -8z"/>
</g>
</svg>
