<svg width="143" height="18" viewBox="0 0 143 18" fill="none" xmlns="http://www.w3.org/2000/svg">
<path d="M0.882438 2.864H8.41844V5.288H5.94644L5.92244 14.576H9.73844L10.6024 12.176L12.9064 12.968L11.4904 17H0.882438V14.576H3.18644V5.288H0.882438V2.864ZM21.199 5.816C22.399 5.816 23.423 6.048 24.271 6.512C25.119 6.976 25.767 7.648 26.215 8.528C26.663 9.392 26.887 10.432 26.887 11.648C26.887 13.472 26.383 14.896 25.375 15.92C24.383 16.944 22.991 17.456 21.199 17.456C20.031 17.456 19.023 17.224 18.175 16.76C17.343 16.296 16.703 15.632 16.255 14.768C15.823 13.888 15.607 12.848 15.607 11.648C15.607 10.432 15.823 9.392 16.255 8.528C16.703 7.648 17.343 6.976 18.175 6.512C19.023 6.048 20.031 5.816 21.199 5.816ZM21.199 8.048C20.239 8.048 19.511 8.36 19.015 8.984C18.535 9.592 18.295 10.48 18.295 11.648C18.295 12.816 18.535 13.712 19.015 14.336C19.511 14.96 20.239 15.272 21.199 15.272C22.191 15.272 22.935 14.96 23.431 14.336C23.927 13.712 24.175 12.816 24.175 11.648C24.175 10.48 23.927 9.592 23.431 8.984C22.935 8.36 22.191 8.048 21.199 8.048ZM36.5755 8.12C36.2875 8.024 35.9915 7.952 35.6875 7.904C35.3995 7.84 35.0875 7.808 34.7515 7.808C34.1915 7.808 33.6875 7.912 33.2395 8.12C32.8075 8.328 32.5915 8.648 32.5915 9.08C32.5915 9.448 32.7195 9.744 32.9755 9.968C33.2315 10.192 33.7275 10.352 34.4635 10.448L35.9035 10.664C37.1515 10.824 38.0555 11.168 38.6155 11.696C39.1755 12.224 39.4555 12.944 39.4555 13.856C39.4555 14.672 39.2395 15.352 38.8075 15.896C38.3755 16.424 37.7995 16.816 37.0795 17.072C36.3755 17.328 35.5995 17.456 34.7515 17.456C33.8555 17.456 33.0475 17.36 32.3275 17.168C31.6235 16.992 30.9755 16.728 30.3835 16.376L29.9515 13.88L32.2315 13.472L32.4955 14.792C32.8315 14.952 33.1755 15.072 33.5275 15.152C33.8795 15.232 34.2395 15.272 34.6075 15.272C35.2635 15.272 35.8315 15.16 36.3115 14.936C36.7915 14.712 37.0315 14.376 37.0315 13.928C37.0315 13.592 36.9115 13.32 36.6715 13.112C36.4315 12.904 35.9515 12.76 35.2315 12.68L33.8635 12.464C32.7115 12.288 31.8075 11.928 31.1515 11.384C30.4955 10.84 30.1675 10.12 30.1675 9.224C30.1675 8.52 30.3595 7.912 30.7435 7.4C31.1275 6.888 31.6635 6.496 32.3515 6.224C33.0395 5.952 33.8235 5.816 34.7035 5.816C35.4555 5.816 36.1515 5.904 36.7915 6.08C37.4315 6.24 38.0235 6.512 38.5675 6.896L38.9995 9.2L36.9595 9.584L36.5755 8.12ZM52.5854 15.68C51.8654 16.288 51.1294 16.736 50.3774 17.024C49.6254 17.312 48.8494 17.456 48.0494 17.456C46.8494 17.456 45.7934 17.216 44.8814 16.736C43.9854 16.24 43.2894 15.56 42.7934 14.696C42.2974 13.816 42.0494 12.808 42.0494 11.672C42.0494 10.488 42.2814 9.464 42.7454 8.6C43.2254 7.72 43.8814 7.04 44.7134 6.56C45.5454 6.064 46.5134 5.816 47.6174 5.816C48.7214 5.816 49.6814 6.04 50.4974 6.488C51.3134 6.936 51.9454 7.568 52.3934 8.384C52.8414 9.184 53.0654 10.128 53.0654 11.216C53.0654 11.408 53.0494 11.624 53.0174 11.864C53.0014 12.104 52.9774 12.336 52.9454 12.56H44.6894C44.7374 13.184 44.9214 13.704 45.2414 14.12C45.5614 14.52 45.9614 14.816 46.4414 15.008C46.9374 15.2 47.4734 15.296 48.0494 15.296C48.7214 15.296 49.3614 15.192 49.9694 14.984C50.5774 14.76 51.1294 14.448 51.6254 14.048L52.5854 15.68ZM50.3534 10.688C50.3374 9.888 50.0894 9.248 49.6094 8.768C49.1454 8.272 48.5054 8.024 47.6894 8.024C46.9214 8.024 46.2494 8.272 45.6734 8.768C45.1134 9.248 44.8014 9.888 44.7374 10.688H50.3534ZM73.7472 15.392C73.1712 16.128 72.4592 16.712 71.6112 17.144C70.7632 17.576 69.6992 17.792 68.4192 17.792C67.8112 17.792 67.1872 17.72 66.5472 17.576C65.9232 17.432 65.3472 17.184 64.8192 16.832C64.2912 16.464 63.8672 15.976 63.5472 15.368C63.2432 14.76 63.0912 14 63.0912 13.088C63.0912 12.24 63.2432 11.536 63.5472 10.976C63.8512 10.416 64.2592 9.936 64.7712 9.536C65.2832 9.136 65.8352 8.76 66.4272 8.408C66.0592 7.88 65.7712 7.368 65.5632 6.872C65.3552 6.36 65.2512 5.864 65.2512 5.384C65.2512 4.696 65.3552 4.136 65.5632 3.704C65.7872 3.272 66.0752 2.944 66.4272 2.72C66.7952 2.48 67.1792 2.312 67.5792 2.216C67.9952 2.12 68.3872 2.072 68.7552 2.072C69.3952 2.072 69.9792 2.184 70.5072 2.408C71.0352 2.632 71.4512 2.968 71.7552 3.416C72.0752 3.864 72.2352 4.432 72.2352 5.12C72.2352 5.952 72.0032 6.656 71.5392 7.232C71.0752 7.808 70.5072 8.328 69.8352 8.792C70.2992 9.32 70.8112 9.84 71.3712 10.352C71.9312 10.864 72.5152 11.36 73.1232 11.84C73.3632 11.2 73.5792 10.512 73.7712 9.776C73.9632 9.04 74.1312 8.32 74.2752 7.616L77.5392 6.56L78.2592 8.816L76.3632 9.44C76.2032 10 76.0112 10.632 75.7872 11.336C75.5792 12.024 75.3232 12.696 75.0192 13.352C75.6752 13.816 76.2992 14.264 76.8912 14.696C77.4992 15.112 78.0672 15.504 78.5952 15.872L77.3472 17.96C76.9152 17.64 76.3872 17.264 75.7632 16.832C75.1392 16.4 74.4672 15.92 73.7472 15.392ZM67.8192 10.16C67.2752 10.56 66.8032 10.992 66.4032 11.456C66.0032 11.92 65.8032 12.464 65.8032 13.088C65.8032 13.568 65.8912 13.976 66.0672 14.312C66.2592 14.632 66.4912 14.896 66.7632 15.104C67.0512 15.296 67.3472 15.44 67.6512 15.536C67.9712 15.632 68.2752 15.68 68.5632 15.68C69.3952 15.68 70.0592 15.52 70.5552 15.2C71.0672 14.864 71.5232 14.456 71.9232 13.976C71.2192 13.416 70.5072 12.808 69.7872 12.152C69.0672 11.496 68.4112 10.832 67.8192 10.16ZM68.8272 3.848C68.3952 3.848 68.0832 3.992 67.8912 4.28C67.7152 4.552 67.6272 4.904 67.6272 5.336C67.6272 5.656 67.6992 5.984 67.8432 6.32C67.9872 6.64 68.1952 7.008 68.4672 7.424C68.8672 7.136 69.2352 6.816 69.5712 6.464C69.9232 6.112 70.0992 5.672 70.0992 5.144C70.0992 4.744 69.9952 4.432 69.7872 4.208C69.5792 3.968 69.2592 3.848 68.8272 3.848ZM88.6893 2.864H99.5853L101.049 7.256L98.7693 8.024L97.8333 5.288H93.4893V8.672H97.1853V11.096H93.4653V14.576H96.5133V17H88.6653V14.576H90.7293L90.7533 5.288H88.6893V2.864ZM103.833 6.272H108.585V14.816H110.577V17H103.833V14.816H105.825V8.432H103.833V6.272ZM106.953 1.064C107.449 1.064 107.849 1.216 108.153 1.52C108.457 1.824 108.609 2.224 108.609 2.72C108.609 3.216 108.457 3.616 108.153 3.92C107.849 4.224 107.449 4.376 106.953 4.376C106.457 4.376 106.057 4.224 105.753 3.92C105.465 3.616 105.321 3.216 105.321 2.72C105.321 2.224 105.465 1.824 105.753 1.52C106.057 1.216 106.457 1.064 106.953 1.064ZM113.427 17V14.816H115.467V8.984L113.163 8.192L113.859 6.008L117.195 7.16C117.819 6.744 118.451 6.416 119.091 6.176C119.731 5.936 120.491 5.816 121.371 5.816C122.363 5.816 123.163 6.008 123.771 6.392C124.395 6.776 124.851 7.312 125.139 8C125.443 8.672 125.595 9.44 125.595 10.304V14.816H127.587V17H121.875V14.816H122.883V10.664C122.883 9.896 122.715 9.296 122.379 8.864C122.043 8.416 121.491 8.192 120.723 8.192C120.259 8.192 119.795 8.272 119.331 8.432C118.883 8.592 118.499 8.784 118.179 9.008V14.816H119.163V17H113.427ZM141.88 17.576L138.808 16.52C137.88 17.144 136.816 17.456 135.616 17.456C133.824 17.456 132.432 16.936 131.44 15.896C130.448 14.856 129.952 13.4 129.952 11.528C129.952 9.736 130.448 8.336 131.44 7.328C132.432 6.32 133.824 5.816 135.616 5.816C135.952 5.816 136.312 5.856 136.696 5.936C137.096 6 137.48 6.096 137.848 6.224V3.992L135.472 3.176L136.24 0.871999L140.56 2.36V14.552L142.624 15.248L141.88 17.576ZM135.64 15.272C135.976 15.272 136.344 15.216 136.744 15.104C137.16 14.992 137.528 14.84 137.848 14.648V8.504C137.56 8.376 137.208 8.272 136.792 8.192C136.392 8.096 136.008 8.048 135.64 8.048C134.76 8.048 134.048 8.368 133.504 9.008C132.976 9.632 132.712 10.472 132.712 11.528C132.712 12.648 132.976 13.552 133.504 14.24C134.048 14.928 134.76 15.272 135.64 15.272Z" fill="white"/>
</svg>
