<?xml version="1.0" standalone="no"?>
<!DOCTYPE svg PUBLIC "-//W3C//DTD SVG 20010904//EN"
 "http://www.w3.org/TR/2001/REC-SVG-20010904/DTD/svg10.dtd">
<svg version="1.0" xmlns="http://www.w3.org/2000/svg"
 width="200.000000pt" height="200.000000pt" viewBox="0 0 200.000000 200.000000"
 preserveAspectRatio="xMidYMid meet">

<g transform="translate(0.000000,200.000000) scale(0.100000,-0.100000)"
fill="#000000" stroke="none">
<path d="M1095 1337 c-8 -19 -36 -85 -63 -148 l-50 -114 -133 -52 c-74 -28
-140 -52 -146 -52 -7 -1 -19 13 -28 29 -31 59 -156 114 -171 75 -4 -10 2 -37
15 -62 16 -33 32 -49 64 -63 23 -11 50 -20 60 -20 16 0 18 -5 12 -41 -4 -23
-20 -87 -36 -143 -16 -55 -29 -104 -29 -108 0 -5 39 -8 88 -8 l87 0 18 43 19
42 21 -42 21 -43 148 0 148 0 17 35 17 35 24 -35 25 -35 84 0 85 0 -58 108
c-75 142 -87 162 -95 162 -3 0 -28 -48 -55 -107 -26 -60 -52 -114 -57 -120 -5
-7 -28 -13 -50 -13 l-40 0 7 75 c5 58 4 75 -6 74 -7 0 -65 -10 -128 -22 l-115
-22 -25 -52 -25 -52 -57 -1 c-32 0 -58 2 -58 4 0 2 15 64 34 137 l34 133 152
57 c83 31 153 59 154 61 1 1 27 58 56 126 30 67 56 122 59 122 4 -1 17 -24 31
-53 l25 -52 135 -51 c74 -28 136 -56 138 -62 5 -16 -35 -89 -54 -96 -16 -6
-145 0 -191 10 -14 3 -25 14 -29 30 -4 13 -11 23 -18 21 -21 -7 -18 -36 7 -61
21 -21 37 -25 125 -31 124 -9 137 -3 181 85 l31 60 -28 13 c-15 8 -59 26 -98
41 l-70 26 -34 71 c-19 39 -38 73 -42 75 -4 3 -15 -15 -26 -38 l-19 -43 -32
63 c-17 34 -34 62 -37 62 -3 0 -11 -15 -19 -33z m150 -108 c16 -31 16 -31 -7
-24 -31 10 -31 10 -23 34 8 28 12 27 30 -10z m-645 -195 c30 -18 68 -74 50
-74 -39 0 -110 53 -110 82 0 13 30 9 60 -8z m697 -292 l45 -82 -50 0 c-45 0
-52 3 -76 34 l-26 34 22 51 c11 29 25 50 30 49 6 -2 30 -41 55 -86z m-287 -29
c0 -63 -6 -63 -31 2 -18 47 -16 55 13 55 15 0 18 -8 18 -57z m-70 22 c28 -73
27 -75 -29 -75 -49 0 -51 1 -66 37 -8 20 -14 38 -12 39 3 3 72 21 90 23 4 1
12 -10 17 -24z"/>
</g>
</svg>
