<?xml version="1.0" standalone="no"?>
<!DOCTYPE svg PUBLIC "-//W3C//DTD SVG 20010904//EN"
 "http://www.w3.org/TR/2001/REC-SVG-20010904/DTD/svg10.dtd">
<svg version="1.0" xmlns="http://www.w3.org/2000/svg"
 width="980.000000pt" height="980.000000pt" viewBox="0 0 980.000000 980.000000"
 preserveAspectRatio="xMidYMid meet">

<g transform="translate(0.000000,980.000000) scale(0.100000,-0.100000)"
fill="#000000" stroke="none">
<path d="M775 9790 c-270 -7 -291 -11 -407 -72 -130 -69 -236 -180 -322 -339
l-46 -86 0 -4399 0 -4399 58 -105 c80 -146 186 -252 332 -332 l105 -58 4400 0
4400 0 90 49 c171 94 268 192 354 361 l49 95 8 3949 7 3948 -699 699 -699 699
-352 0 -353 0 0 -1400 0 -1400 -2805 0 -2805 0 0 1400 0 1400 -532 -2 c-293
-1 -645 -5 -783 -8z m7623 -6647 l2 -2453 -3505 0 -3505 0 0 2455 0 2455 3503
-2 3502 -3 3 -2452z"/>
<path d="M2090 4540 l0 -350 2803 2 2802 3 3 348 2 347 -2805 0 -2805 0 0
-350z"/>
<path d="M2090 3140 l0 -350 2805 0 2805 0 0 350 0 350 -2805 0 -2805 0 0
-350z"/>
<path d="M2090 1740 l0 -350 2805 0 2805 0 0 350 0 350 -2805 0 -2805 0 0
-350z"/>
<path d="M5600 8750 l0 -1050 700 0 700 0 0 1050 0 1050 -700 0 -700 0 0
-1050z"/>
</g>
</svg>
